<?xml version="1.0" encoding="UTF-8"?>
<svg width="50px" height="49px" viewBox="0 0 50 49" version="1.1" xmlns="http://www.w3.org/2000/svg" xmlns:xlink="http://www.w3.org/1999/xlink">
    <title>64AACC76-BBB2-4005-B070-4B8B9C46F3DD</title>
    <defs>
        <polygon id="path-1" points="0 -6.20255441e-15 46.0287692 -6.20255441e-15 46.0287692 34.4688957 0 34.4688957"></polygon>
        <polygon id="path-3" points="-3.12107259e-15 -3.1012772e-15 24.2170124 -3.1012772e-15 24.2170124 11.4279883 -3.12107259e-15 11.4279883"></polygon>
    </defs>
    <g id="Homepage" stroke="none" stroke-width="1" fill="none" fill-rule="evenodd">
        <g id="01-Homepage-Desktop" transform="translate(-186.000000, -8431.000000)">
            <g id="Footer" transform="translate(0.000000, 8025.000000)">
                <g id="Group-19" transform="translate(186.000000, 406.405920)">
                    <path d="M23.0348098,10.2414556 C26.5387223,10.2414556 29.7109997,11.6499313 32.0104835,13.9291566 L23.0277818,22.8544491 L19.0797855,18.9297471 L19.0797855,24.8700489 L23.0277818,28.7947508 L34.4948923,17.4003704 C35.2978448,19.0558858 35.7471995,20.9108661 35.7471995,22.8714712 C35.7471995,29.8483797 30.0558124,35.5019233 23.0348098,35.5019233 C16.0155642,35.5019233 10.3241771,29.8483797 10.3241771,22.8714712 C10.3241771,15.8967451 16.0155642,10.2414556 23.0348098,10.2414556" id="Fill-1" fill="#777788"></path>
                    <path d="M36.4645858,45.7111241 C36.5572679,45.7368756 37.1783701,45.8490473 37.8614069,45.8508727 C38.7069668,45.8542849 39.6474052,45.7416767 39.7897228,45.71287 L40.2667504,45.6120463 L40.2548906,41.6175098 L37.6843883,41.6227474 L37.6843883,42.8295758 L38.5923221,42.8417968 L38.5923221,44.5706385 C38.3278924,44.7137994 37.6914164,44.7836339 37.3483606,44.6915396 C36.974118,44.5911524 36.8146695,44.301339 36.7184734,43.9089561 C36.5366231,43.1586711 36.5673707,42.0181856 36.5779128,41.2098506 C36.5880156,40.403698 36.6003146,39.3208259 37.2073608,38.9969682 C37.5798464,38.7992491 38.0911356,38.9271336 38.3261354,39.1606429 C38.6160417,39.4504563 38.5580604,39.825817 38.6129669,40.2823604 L40.2566476,40.2793052 C40.3629465,39.6464295 40.1002739,38.9083656 39.8002648,38.5522094 C39.0210319,37.6212274 37.423912,37.530879 36.4285671,37.9180243 C35.8777452,38.1327656 35.5311754,38.4618609 35.2825589,38.9511392 C34.8037743,39.8956516 34.8345219,41.730118 34.9030452,42.9133773 C34.9803535,44.2432891 35.1556151,45.2558901 36.4645858,45.7111241" id="Fill-3" fill="#777788"></path>
                    <path d="M30.582739,45.7145285 C30.6565334,45.7385342 31.2227291,45.8507261 31.8078126,45.8507261 C32.4425317,45.8524518 33.0996525,45.74028 33.1804749,45.7145285 C34.1020254,45.4177317 34.5961838,44.6796677 34.5430343,43.470657 C34.4415671,41.0770777 31.0733834,41.2442441 31.1884674,39.649834 C31.2262431,39.1265113 31.6448502,38.809637 32.2299337,38.9235546 C32.8664098,39.0483839 32.7618678,39.8204922 32.8321481,40.0950292 L34.4332214,40.0915375 C34.570268,39.5782535 34.352399,38.5691442 33.7963061,38.1597392 C32.856307,37.46925 30.5897671,37.5377752 29.8619267,38.5761277 C29.4933943,39.1011962 29.3646935,40.0046808 29.6203381,40.6916782 C30.2669169,42.4205199 33.0276152,42.5230894 32.8374191,43.9821951 C32.7891014,44.3523183 32.5883633,44.5976121 32.2470646,44.676176 C31.8337285,44.7735079 31.4524578,44.6368941 31.2675328,44.4051306 C31.0632806,44.1511074 31.0716264,43.6840889 31.0632806,43.3192033 L29.3901701,43.329242 C29.301002,44.3710863 29.5513755,45.3190904 30.582739,45.7145285" id="Fill-5" fill="#777788"></path>
                    <path d="M43.1683168,45.8509241 C43.8684843,45.8509241 44.8084834,45.7793437 45.3096699,45.2167391 C45.8741086,44.5808082 45.9786505,43.1758243 45.5464266,42.4718047 C45.4484735,42.3146769 45.3781932,42.2278202 45.2683802,42.1069191 C44.6420069,41.4199217 43.5987836,41.0973733 42.9864665,40.6133326 C42.7822143,40.4531496 42.5147099,40.2196403 42.483523,39.8307491 C42.3996259,38.7889048 43.5355314,38.7448218 43.8803441,39.1127626 C44.1873812,39.4401121 44.0727365,39.9040754 44.1790354,40.0712418 L45.7678096,40.1017945 C45.7660526,39.454079 45.8003142,38.9713476 45.3799502,38.4174723 C44.7830068,37.633143 43.2781297,37.6161208 42.3908409,37.8238786 C40.6615061,38.2280461 40.5068894,39.9791475 41.0370665,40.9611959 C41.3151129,41.4775352 41.8334302,41.8441666 42.3517474,42.1614774 C43.1718308,42.6625403 44.3455119,43.095951 44.1135869,44.0880381 C43.9181198,44.9199422 42.8300928,44.8178092 42.5318407,44.3678128 C42.3499904,44.0915298 42.3671213,43.6738319 42.3535045,43.3172392 C42.1079626,43.3019629 40.8451134,43.281449 40.6821509,43.3325155 C40.5758519,45.2813361 41.4077951,45.8509241 43.1683168,45.8509241" id="Fill-7" fill="#777788"></path>
                    <g id="Group-11">
                        <mask id="mask-2" fill="white">
                            <use xlink:href="#path-1"></use>
                        </mask>
                        <g id="Clip-10"></g>
                        <path d="M23.015922,-0.000130939789 C35.6167417,-0.000130939789 45.8517506,10.0625919 46.0287692,22.5424632 L46.0287692,34.4688957 L41.5347828,34.4688957 L41.5347828,22.5424632 C41.3582035,12.5294975 33.1340899,4.46491588 23.015922,4.46491588 C12.895997,4.46491588 4.67188339,12.5294975 4.49530412,22.5424632 L0,22.5424632 C0.178336278,10.0625919 10.4133452,-0.000130939789 23.015922,-0.000130939789" id="Fill-9" fill="#777788" mask="url(#mask-2)"></path>
                    </g>
                    <path d="M40.0712833,8.92695108 L39.7194425,8.46822535 L37.6246501,10.2415866 L37.9848367,10.6693232 L40.0712833,8.92695108 L40.0712833,8.92695108 Z M8.5101545,6.24355833 L10.2777042,8.31808106 L10.7134421,7.98767632 C10.1230875,7.27143567 9.54503202,6.5709078 8.92920083,5.87867278 L8.5101545,6.24355833 Z M18.7486774,1.26173581 L19.2358078,3.95211201 L19.7817979,3.86307296 L19.3078451,1.17095089 L18.7486774,1.26173581 Z M11.0894418,4.29822952 L11.8032261,5.48105229 L12.5323843,6.66431152 L13.0177577,6.3644594 L12.2956275,5.17247085 L11.5629553,4.02674769 L11.0894418,4.29822952 Z M16.4426049,1.82259457 L16.5423151,2.2608064 L17.1651743,2.1158997 L17.7449868,4.30128479 L18.3006405,4.17165439 L17.727856,1.96226368 L18.3370984,1.80033481 L18.2321172,1.36212298 L16.4426049,1.82259457 Z M7.99710826,7.3377785 L8.42450037,6.90480426 L8.09857545,6.58443825 L6.79795052,7.86808465 L7.11728667,8.18364954 L7.54072552,7.76245988 C8.10033246,8.28403671 8.63226653,8.81434286 9.17254639,9.35337832 L9.57226563,8.95750369 L7.99710826,7.3377785 Z M10.2280687,5.44220682 L10.8851896,4.92193939 L10.6449188,4.60681096 L9.50725635,5.44220682 L11.1065726,7.62933776 L11.5647123,7.30722588 L10.8952924,6.32517746 L11.5111236,5.86994346 L11.2901799,5.53561053 L10.62076,5.98080582 L10.2280687,5.44220682 Z M34.2973168,5.2270291 L34.6408118,4.66966206 L35.4059887,5.15544868 L35.6409884,4.8075853 L34.393513,4.01147139 L32.906206,6.30815529 L34.179158,7.11299853 L34.400541,6.7581517 L33.6265791,6.26887335 L34.0557283,5.60413569 L34.7712696,6.03710993 L34.9768395,5.68575483 L34.2973168,5.2270291 Z M4.82658792,11.0974963 L5.30537251,10.3284433 L4.96890554,10.1219949 L4.1470652,11.3410443 L6.43073592,12.8568906 L7.25960429,11.5867747 L6.9077635,11.3733428 L6.38110045,12.1323571 L5.7375964,11.704184 L6.17684831,11.005402 L5.82500753,10.7889149 L5.36862478,11.4588901 L4.82658792,11.0974963 Z M28.376201,4.34929604 L29.8296856,4.81980635 L29.9531153,4.40734602 L29.0640695,4.11884201 L29.2977515,3.37073935 L30.095433,3.62301668 L30.2412646,3.2136116 L29.4453401,2.96308014 L29.6337792,2.35246426 L30.5263391,2.59994046 L30.6515259,2.20624816 L29.241088,1.74228484 L28.376201,4.34929604 Z M41.8195059,12.2021917 L42.2864307,12.9830293 L42.6431032,12.7853102 L41.9055993,11.4776582 L39.5187044,12.8176087 L40.2461055,14.13399 L40.6256192,13.9410721 L40.1898813,13.1056762 L40.8672077,12.7442824 L41.2998709,13.4535396 L41.6481976,13.2763344 L41.2620952,12.5020438 L41.8195059,12.2021917 Z M39.7607322,11.5047191 C39.6526762,11.5575314 39.4963025,11.6836701 39.3574989,11.6941453 C39.1910224,11.7076757 39.0640786,11.5610232 39.0965833,11.3820721 C39.146658,11.0922587 40.2513766,10.3524489 40.5017501,10.3266974 C40.9207965,10.2808685 40.9155255,10.7221356 40.524152,10.9028325 C40.5584136,11.02417 40.745535,11.2799391 40.8382171,11.3733428 C41.0323665,11.3087458 41.3082167,11.0171866 41.3170017,10.7273732 C41.3240297,10.4275211 41.0784879,10.113702 40.9396843,9.98756337 C40.4042362,9.49959442 39.7932368,9.99411036 39.3970316,10.2721392 C39.0245459,10.5348917 38.3432662,10.9490979 38.6867612,11.6496258 C38.7930602,11.8661129 39.0109291,12.1458876 39.2577887,12.2122304 C39.551209,12.2890484 39.9460965,12.1100974 40.0800683,11.9481685 L39.7607322,11.5047191 Z M14.6082889,4.46495952 L14.1057847,4.70370641 C14.1277473,4.86912701 14.2463453,4.98871868 14.2257004,5.16243213 C14.2068126,5.31083056 14.0368221,5.41470946 13.8518971,5.33789145 C13.6098693,5.24099601 12.9953558,4.06122851 13.0366455,3.76268579 C13.0673931,3.52219304 13.4126451,3.34673372 13.6217291,3.88009513 L14.1246725,3.64178471 C14.0249623,3.15730749 13.4346077,2.78762082 12.7638701,3.33320328 C12.2200762,3.77447037 12.5341413,4.337075 12.8086738,4.87611046 C13.0401595,5.32610687 13.3419256,5.98953514 14.0196913,5.80840176 C14.2823639,5.73856721 14.5792982,5.5578703 14.6908682,5.37717339 C14.8845783,5.06335436 14.7145878,4.73294962 14.6082889,4.46495952 L14.6082889,4.46495952 Z M4.53492465,12.3505901 C4.12993438,12.0079643 3.44338363,12.1253737 3.24615952,12.9249793 C3.07792604,13.6154685 3.75744875,13.8987349 4.19670067,14.1287524 C4.75762537,14.4203117 5.37389581,14.7219097 5.77185804,14.1270066 C5.90934389,13.9205582 6.08943718,13.6071756 5.98445597,13.2951024 C5.91241866,13.0851623 5.62251239,12.8193545 5.39278364,12.7735256 L5.14899883,13.2780803 C5.6690731,13.4893298 5.58473673,13.7944195 5.37389581,13.884768 C5.07169049,14.0178901 3.9067944,13.3326385 3.76623379,13.1519416 C3.65949557,13.0170736 3.67706565,12.7800726 3.8483739,12.730752 C4.00123357,12.6879783 4.16595303,12.8058241 4.29816786,12.8381226 L4.53492465,12.3505901 Z M37.2899401,8.68645833 L38.3401915,7.03618052 L37.9127993,6.62372018 L36.45624,9.02253712 L36.9416134,9.48955571 L39.3799007,8.06274847 L38.9937983,7.68215015 L37.2899401,8.68645833 Z M41.2019177,14.0999457 C40.6906285,14.198587 40.4573857,14.6573127 40.7024883,15.2063869 C40.8966376,15.641107 41.1883009,16.0330534 41.8247769,15.7484776 C42.3826269,15.4979462 42.2126364,15.0632261 42.3703278,14.4578478 C42.4305053,14.2278302 42.6655051,14.0178901 42.8767853,14.2003329 C42.9453086,14.2583828 43.0138319,14.4050354 42.9606824,14.5241906 C42.9128039,14.6298154 42.8012339,14.6520751 42.6896639,14.7389319 L42.8921591,15.2334478 C44.0210365,15.044458 43.221598,13.0188195 42.1577299,13.7263308 C41.6534687,14.0606638 41.8933002,14.6215225 41.6723565,15.0785024 C41.5744033,15.2832049 41.2585812,15.3801004 41.1232916,15.1243313 C40.9427591,14.7869431 41.2550672,14.7389319 41.4233007,14.6097379 L41.2019177,14.0999457 Z M31.3275346,4.53173882 C31.0270863,5.12140433 31.1557871,5.44526208 31.6793754,5.70103113 C32.2161412,5.96203778 32.6193745,5.91620885 32.8715051,5.42343878 C33.1565796,4.86738114 32.7138136,4.48372756 32.5165895,4.13455479 C32.1748515,3.53266822 32.8715051,3.38601566 32.9659442,3.71336513 C33.0072339,3.85303424 32.9246546,3.94163683 32.9110378,4.06602963 C33.0296358,4.1498311 33.2716636,4.28775434 33.4104672,4.30826824 C33.6696258,3.68063018 33.5049064,3.42660699 32.9795611,3.18305899 C32.4392812,2.93252752 31.9965153,3.1302466 31.8489266,3.60904977 C31.6806931,4.14808523 32.1665058,4.53479408 32.3070664,4.89138677 C32.4133653,5.164178 32.2556739,5.47101357 31.9552256,5.36888054 C31.5884502,5.24579713 31.8028052,4.98871868 31.8440949,4.77354096 L31.3275346,4.53173882 Z M15.1591108,5.19647648 L15.6857738,5.01228784 L15.6326243,4.40385429 L16.3534367,4.1293172 L16.7206513,4.61859554 L17.2644452,4.40210842 L15.6154935,2.11895496 L14.91884,2.34591727 L15.1591108,5.19647648 Z M15.4318862,2.80638886 L16.0789043,3.76093992 L15.5847459,3.93334398 L15.4318862,2.80638886 Z M20.7714325,0.935695735 C19.96848,1.11508325 20.0734612,1.78855023 20.1538443,2.59994046 C20.2329097,3.38426979 20.4749375,3.88882445 21.38946,3.70114409 C22.1853844,3.53572348 22.0944593,2.83170388 22.0105622,2.04257342 C21.9262258,1.26173581 21.7000111,0.729683799 20.7714325,0.935695735 L20.7714325,0.935695735 Z M20.7305821,2.47729352 C20.6910494,2.14645232 20.5658626,1.41144364 20.939666,1.3298245 C21.3723291,1.23249259 21.3978058,1.84965546 21.4303104,2.18224253 C21.4632543,2.50260855 21.5901981,3.20182702 21.2537311,3.2956672 C20.7872456,3.4252976 20.7714325,2.81468171 20.7305821,2.47729352 L20.7305821,2.47729352 Z M36.3275392,7.09073876 C36.6978285,7.15533573 36.8831928,7.10252335 37.0615291,6.87774337 C37.193744,6.71406864 37.3619774,6.43254809 37.2486504,6.14273469 C37.1665103,5.93323103 36.3306139,5.28682493 36.2036701,5.2270291 C35.6339604,5.93148516 35.0660077,6.6337589 34.4967372,7.3377785 C34.6474006,7.45737017 34.7985032,7.57827125 34.9478489,7.69786292 C35.033503,7.57172426 35.5654371,6.90829599 35.6510912,6.84369903 C35.889605,6.97289295 35.9550535,7.10601507 35.9326517,7.24262892 C35.9256237,7.29020371 35.9120069,7.34127023 35.8830162,7.38578976 L35.4178485,8.07104132 L35.8298668,8.43767273 C35.891362,8.350816 36.3530158,7.73539899 36.4013335,7.65334339 C36.4869876,7.5031991 36.4764456,7.37706044 36.3275392,7.09073876 L36.3275392,7.09073876 Z M35.9361657,6.48186874 C36.0732123,6.30815529 36.226072,6.08468472 36.3890344,5.92624757 C36.6534641,6.05238624 36.8045668,6.26363576 36.5743988,6.54341045 C36.3666326,6.79568777 36.0819974,6.70708518 35.9361657,6.48186874 L35.9361657,6.48186874 Z M7.24906224,9.46555008 C7.32109956,9.09411754 7.31802479,8.98325519 7.077754,8.75149176 C6.92840834,8.60833092 6.64509086,8.41715883 6.33805377,8.5162366 C6.14258666,8.5790877 5.93833452,8.85711652 5.81666174,9.00726081 C5.6708301,9.18621186 5.53334425,9.33286442 5.38224159,9.5371305 C6.08416616,10.1171938 6.78433371,10.6968206 7.48406202,11.2764474 C7.60617405,11.1350324 7.72784683,10.993181 7.84820186,10.8535118 C7.70544499,10.7308649 7.56488437,10.608218 7.42432376,10.4851346 C7.29913696,10.3795098 7.0913708,10.236349 7.00220267,10.1185032 C7.19766977,9.85269539 7.34877243,9.80686646 7.48933304,9.85793298 L8.23079028,10.3489572 C8.34236027,10.2057964 8.47764986,10.0779118 8.58921984,9.93649685 C7.824043,9.42670461 7.74673467,9.14518406 7.24906224,9.46555008 L7.24906224,9.46555008 Z M6.08768017,9.38567681 C6.12545584,9.25779228 6.34991357,8.90643718 6.69340857,9.19625058 C6.94905318,9.41099183 6.89414669,9.63446241 6.65738991,9.83741908 C6.5871096,9.80992172 6.16982028,9.46729594 6.08768017,9.38567681 L6.08768017,9.38567681 Z M26.100876,3.82902861 C27.1665012,3.99444921 27.8719398,4.51297078 28.1943507,2.90503017 C28.2953786,2.40222137 28.4122196,1.84441787 28.043248,1.52928945 C27.8442669,1.35863125 27.0105668,1.18317194 26.660483,1.15392872 L26.100876,3.82902861 Z M26.7685389,3.51564605 L27.1269685,1.77458332 C27.1682582,1.65193638 27.1972488,1.68772659 27.3553795,1.7235168 C27.4651925,1.74926829 27.5526036,1.76629046 27.6176129,1.82914156 C27.8684257,2.07836363 27.5407438,3.30570592 27.3536225,3.503425 C27.2319497,3.63130953 26.9279874,3.6073039 26.7685389,3.51564605 L26.7685389,3.51564605 Z M22.664169,3.57675129 L23.2079629,3.59377346 L23.2769255,1.67594201 L23.973579,3.62301668 L24.718111,3.64483998 L24.7984941,0.908634845 L24.2788591,0.893358536 L24.2068218,2.74135543 L23.5308131,0.867607044 L22.7656362,0.862369452 L22.664169,3.57675129 Z" id="Fill-12" fill="#777788"></path>
                    <g id="Group-16" transform="translate(24.843298, 36.267572)">
                        <mask id="mask-4" fill="white">
                            <use xlink:href="#path-3"></use>
                        </mask>
                        <g id="Clip-15"></g>
                        <polygon id="Fill-14" fill="#777788" mask="url(#mask-4)" points="-3.12107259e-15 9.48789713 20.9329894 9.48789713 20.9329894 -3.1012772e-15 21.2488115 -3.1012772e-15 21.2488115 9.48789713 24.217276 9.48789713 24.217276 9.80171616 21.2488115 9.80171616 21.2488115 11.4279883 20.9329894 11.4279883 20.9329894 9.80171616 -3.12107259e-15 9.80171616"></polygon>
                    </g>
                    <path d="M5.95889151,29.9403867 C6.09593811,29.4733681 5.82184491,28.7418512 5.50426578,28.3957337 C4.81464027,27.6371558 3.31327721,28.3547059 2.43125936,28.7418512 C1.96257757,28.9413161 1.5356247,29.1935934 1.38452204,29.7134244 C1.24571844,30.192664 1.52156864,30.9123964 1.85276459,31.244547 C2.44487617,31.8839696 3.45032381,31.4715093 4.181239,31.2039557 C4.84363089,30.9512419 5.73926555,30.6583732 5.95889151,29.9403867 L5.95889151,29.9403867 Z M1.63138162,25.5587049 C1.31424174,25.5329534 0.818326322,25.7463852 0.598700363,26.012193 C0.322410907,26.3308132 0.404551016,26.7982682 0.473513567,27.1836677 C0.639990044,28.115959 1.30062493,28.5148889 2.22525021,28.2215837 C3.32689402,27.8619358 3.05060457,26.3172827 3.76790295,26.0785358 C3.96161304,26.012193 4.15400538,26.0257235 4.29105198,26.1845971 C4.41623878,26.3447801 4.44391165,26.6105879 4.30466879,26.74371 C4.181239,26.8763956 3.98752891,26.903893 3.82280944,26.9702358 L3.97522985,27.7820625 C4.34595847,27.8226538 4.77335059,27.5825976 4.96706068,27.3028229 C5.3259295,26.7707709 4.99473355,25.5329534 4.38724815,25.2653998 C4.05780921,25.1187472 3.50698731,25.1322776 3.18940817,25.319958 C2.16858672,25.9183528 2.48616585,27.4101935 1.604148,27.423724 C1.06694291,27.435945 0.859616002,26.704428 1.50795183,26.4914327 C1.63138162,26.4504048 1.72757779,26.4504048 1.78424129,26.3975925 L1.63138162,25.5587049 Z M9.19661739,35.3979571 C9.37671068,34.9187175 8.92208495,34.3596046 8.57727219,34.1208577 C7.83274019,33.5735294 6.67618989,34.7057221 6.06870449,35.23952 C5.50426578,35.7711355 4.8572477,36.316718 5.3259295,37.1027932 C5.55917227,37.5017231 5.86269534,37.6894034 6.17851747,37.7147185 C6.49609661,37.7422158 6.86814298,37.5955633 7.2270118,37.3415401 C7.79145051,36.9426102 8.96337463,36.0116283 9.19661739,35.3979571 L9.19661739,35.3979571 Z M5.95889151,36.8897978 C5.78055523,36.6628355 5.98612513,36.4498401 6.19389129,36.2503751 C6.39990044,36.0509102 6.61952639,35.8649757 6.84090936,35.6777318 C7.101825,35.4525154 7.9715438,34.6136278 8.28736593,34.732783 C8.43978634,34.7995623 8.53598251,34.9854968 8.4538424,35.1592102 C8.41255272,35.2513046 8.25969305,35.3979571 8.17755295,35.4782669 C7.9715438,35.6655108 7.75016083,35.8649757 7.53053487,36.0373798 C7.33682478,36.1975628 6.19389129,37.3297555 5.95889151,36.8897978 L5.95889151,36.8897978 Z M11.058167,37.1966334 C11.2092697,36.6903328 10.7410271,36.2368447 10.3549247,35.9980978 C9.81771961,35.6655108 9.36309387,35.9845674 8.96337463,36.316718 C8.53598251,36.7038633 7.3776752,37.9416808 7.25424542,38.5007937 C7.13081563,39.060343 7.50154425,39.4998643 7.95616998,39.7386111 C8.79689815,40.2060662 9.77642993,38.9665028 10.2864014,38.368108 C10.5609338,38.0473055 10.9329802,37.6090937 11.058167,37.1966334 L11.058167,37.1966334 Z M9.91391578,36.62399 C10.0940091,36.5436803 10.5486348,36.6903328 10.1765884,37.2223849 C9.90029897,37.5955633 8.6594123,38.9665028 8.39893591,39.0991885 C8.21884263,39.1794982 7.70887115,39.0738735 8.12264646,38.5007937 C8.41255272,38.0883333 9.59633664,36.7431452 9.91391578,36.62399 L9.91391578,36.62399 Z M3.93262242,33.3347825 C3.72661327,33.3875949 3.50698731,33.6538391 3.42309019,33.8415195 C3.28560434,34.0937968 3.39541732,34.4006324 3.50698731,34.6254124 C3.76790295,35.1321493 4.15400538,35.4525154 4.77335059,35.3451447 C5.35316312,35.23952 6.86814298,34.2675103 7.28191829,33.8275526 C7.75016083,33.360534 7.73654402,32.9358526 7.39173127,32.3885243 C6.67618989,31.2585139 5.13178015,32.3103969 4.88316357,32.8695098 C4.54010782,33.720182 5.40806961,33.9877356 5.51788259,34.0662995 C5.43574248,34.1601396 4.7869674,34.547285 4.63586474,34.6136278 C4.45752846,34.6921917 4.23614549,34.6921917 4.15400538,34.4669752 C4.07142602,34.2404494 4.2497623,34.1343882 4.35957528,33.9999566 L3.93262242,33.3347825 Z M6.90943266,33.1082567 C6.84090936,33.2274119 6.0823213,33.8668345 5.71027493,33.6809 C5.57278908,33.6010267 5.5314994,33.3875949 5.61407876,33.2549092 C5.71027493,33.0807593 6.10999417,32.8149515 6.30370427,32.7346418 C6.97795596,32.4160217 7.01924564,32.8952613 6.90943266,33.1082567 L6.90943266,33.1082567 Z M12.8771092,38.0080236 L12.2283341,37.5955633 C12.0912875,37.6230606 11.9538017,37.675873 11.7877645,37.6894034 C11.6089889,37.7147185 11.401662,37.6894034 11.2228865,37.701188 L10.8095504,38.3406107 C11.058167,38.3951689 11.3326995,38.3816385 11.5817553,38.368108 L10.644831,39.7386111 L9.7355795,41.1112966 L10.4511209,41.5630389 L12.8771092,38.0080236 Z M0.102784949,24.2017322 L0.198981119,25.0541502 L4.69077123,24.6534745 L4.62224793,23.8010564 L0.102784949,24.2017322 Z M5.24159313,29.5397109 C5.06325685,30.032481 3.05060457,30.6854341 2.69349276,30.7111856 C2.10006342,30.7382465 2.03154012,30.2865042 2.10006342,30.0988238 C2.25116608,29.6728331 3.28560434,29.3537764 3.6989404,29.2071239 C4.03013634,29.0879687 4.8572477,28.7283207 5.13178015,29.0744382 C5.24159313,29.1935934 5.29825663,29.3795279 5.24159313,29.5397109 L5.24159313,29.5397109 Z" id="Fill-17" fill="#777788"></path>
                </g>
            </g>
        </g>
    </g>
</svg>