<?xml version="1.0" encoding="UTF-8"?>
<svg width="203px" height="50px" viewBox="0 0 203 50" version="1.1" xmlns="http://www.w3.org/2000/svg" xmlns:xlink="http://www.w3.org/1999/xlink">
    <title>755C7616-7D52-4923-BA21-A0203E540717</title>
    <defs>
        <polygon id="path-1" points="0 0 17.6739424 0 17.6739424 2.36339536 0 2.36339536"></polygon>
        <polygon id="path-3" points="0 0 36.977841 0 36.977841 47.6952777 0 47.6952777"></polygon>
    </defs>
    <g id="Homepage" stroke="none" stroke-width="1" fill="none" fill-rule="evenodd">
        <g id="01-Homepage-Desktop" transform="translate(-1306.000000, -8235.000000)">
            <g id="Footer" transform="translate(0.000000, 8025.000000)">
                <g id="Logo/White" transform="translate(1306.000000, 210.655391)">
                    <g id="Group" transform="translate(1.000000, 0.993658)">
                        <path d="M57.043062,0.960900601 L60.6491764,0.960900601 C61.9365328,0.960900601 62.5821069,1.65042049 62.5821069,3.0285183 L62.5821069,4.209745 C62.5821069,5.58878478 61.9365328,6.2773627 60.6491764,6.2773627 L57.043062,6.2773627 L57.043062,0.960900601 Z M57.043062,7.18259305 L60.11262,7.18259305 L62.8446972,12.8890295 L64.0325157,12.8890295 L61.1686693,7.16469568 C62.8797725,6.97912816 63.7348501,5.7884818 63.7348501,3.59087264 C63.7348501,1.19733433 62.717668,9.41967062e-05 60.6880436,9.41967062e-05 L55.9671051,9.41967062e-05 L55.9671051,12.8890295 L57.043062,12.8890295 L57.043062,7.18259305 Z" id="Fill-1" fill="#FFFFFF"></path>
                        <path d="M69.2381562,13.1105802 C69.9169096,13.1105802 70.4733736,12.9617494 70.9009124,12.6622038 C71.3265553,12.3636003 71.6280128,11.9463089 71.8005451,11.4103296 L71.9493779,11.4103296 L71.9493779,12.8892179 L72.9731959,12.8892179 L72.9731959,3.43563647 L71.9493779,3.43563647 L71.9493779,10.0030308 C71.9493779,10.3487327 71.8868112,10.6595819 71.7645219,10.9374622 C71.6422325,11.2162844 71.4725441,11.4489503 71.2611447,11.6420535 C71.0525892,11.8332728 70.8042185,11.9773938 70.5188766,12.0763003 C70.2354307,12.1752069 69.9301813,12.2241892 69.6088162,12.2241892 C68.9035194,12.2241892 68.3764427,12.0056528 68.0294822,11.5676381 C67.6815736,11.1296234 67.5090414,10.5098091 67.5090414,9.70725317 L67.5090414,3.43563647 L66.4871193,3.43563647 L66.4871193,9.75058366 C66.4871193,10.8696405 66.7250622,11.7108171 67.200948,12.2703455 C67.6777817,12.830816 68.3574831,13.1105802 69.2381562,13.1105802" id="Fill-3" fill="#FFFFFF"></path>
                        <path d="M79.2699609,4.09981744 C79.9392345,4.09981744 80.4482996,4.3183538 80.7971561,4.75542652 C81.1412727,5.1934412 81.3166489,5.81325553 81.3166489,6.61675344 L81.3166489,12.8893121 L82.336675,12.8893121 L82.336675,6.32003381 C82.336675,5.61638441 82.5585022,5.07004352 82.9993127,4.68195309 C83.4353833,4.29386266 83.9719398,4.09981744 84.6042422,4.09981744 C85.2725678,4.09981744 85.7835289,4.3183538 86.1285934,4.75542652 C86.475554,5.1934412 86.6480863,5.81325553 86.6480863,6.61675344 L86.6480863,12.8893121 L87.6700083,12.8893121 L87.6700083,6.57342295 C87.6700083,5.45342411 87.4254296,4.61318949 86.9353241,4.05366106 C86.4480626,3.49224869 85.7835289,3.21248447 84.938879,3.21248447 C84.2696054,3.21248447 83.7046096,3.3660251 83.2400995,3.6693385 C82.7736936,3.97547779 82.4561204,4.42008625 82.2835881,5.00504779 L82.0939922,5.00504779 C81.9091362,4.40878264 81.6038867,3.95946435 81.1772959,3.66180276 C80.7469131,3.3631992 80.2245764,3.21248447 79.6045977,3.21248447 C78.9353241,3.21248447 78.4025595,3.3631992 78.009148,3.65991883 C77.6109966,3.95946435 77.3275507,4.37769773 77.1521744,4.91367699 L77.0061856,4.91367699 L77.0061856,3.43573066 L75.9823676,3.43573066 L75.9823676,12.8893121 L77.0061856,12.8893121 L77.0061856,6.32003381 C77.0061856,5.61638441 77.2251689,5.07004352 77.6640834,4.68195309 C78.1048939,4.29386266 78.6376585,4.09981744 79.2699609,4.09981744" id="Fill-5" fill="#FFFFFF"></path>
                        <path d="M96.4054509,8.99682161 C96.4054509,10.0471149 96.1731959,10.8487289 95.7067899,11.3988376 C95.2432279,11.9489464 94.5834341,12.2249427 93.7302524,12.2249427 C92.8723308,12.2249427 92.213485,11.9489464 91.749923,11.3988376 C91.283517,10.8487289 91.051262,10.0471149 91.051262,8.99682161 L91.051262,7.32765598 C91.051262,6.27642074 91.283517,5.47480677 91.749923,4.92563997 C92.213485,4.37458924 92.8723308,4.09953485 93.7302524,4.09953485 C94.5834341,4.09953485 95.2432279,4.37458924 95.7067899,4.92563997 C96.1731959,5.47480677 96.4054509,6.27642074 96.4054509,7.32765598 L96.4054509,8.99682161 Z M96.4623297,4.38589284 C96.1267449,3.98555684 95.7266975,3.68977918 95.2621875,3.49855987 C94.7957815,3.30828252 94.2867164,3.21314385 93.7302524,3.21314385 C93.1699964,3.21314385 92.6599834,3.30828252 92.1926295,3.49855987 C91.7300154,3.68977918 91.3328119,3.98555684 90.9953312,4.38589284 C90.6606944,4.78528688 90.4056879,5.29677499 90.2274677,5.91753128 C90.0454556,6.53922955 89.9553976,7.28715139 89.9553976,8.16129683 C89.9553976,9.03638423 90.0454556,9.78242214 90.2274677,10.4050624 C90.4056879,11.0267606 90.6606944,11.5382487 90.9953312,11.9376428 C91.3328119,12.3379788 91.7300154,12.6337564 92.1926295,12.8249758 C92.6599834,13.0152531 93.1699964,13.1103918 93.7302524,13.1103918 C94.2867164,13.1103918 94.7957815,13.0152531 95.2621875,12.8249758 C95.7266975,12.6337564 96.1267449,12.3379788 96.4623297,11.9376428 C96.7960185,11.5382487 97.051025,11.0267606 97.2330371,10.4050624 C97.4112573,9.78242214 97.5013153,9.03638423 97.5013153,8.16129683 C97.5013153,7.28715139 97.4112573,6.53922955 97.2330371,5.91753128 C97.051025,5.29677499 96.7960185,4.78528688 96.4623297,4.38589284 L96.4623297,4.38589284 Z" id="Fill-7" fill="#FFFFFF"></path>
                        <path d="M102.352032,13.1105802 C103.328451,13.1105802 104.086835,12.8675527 104.616756,12.3805557 C105.14952,11.8954427 105.417798,11.2087487 105.417798,10.3232996 C105.417798,9.5461768 105.213035,8.95556346 104.805403,8.54863368 C104.394928,8.14264588 103.738926,7.86005576 102.835502,7.69992136 L102.111245,7.56992991 C101.477995,7.46066173 101.024861,7.27603618 100.752791,7.01605327 C100.481668,6.7579543 100.345159,6.35196649 100.345159,5.79903183 C100.345159,5.23102569 100.511056,4.80714051 100.844745,4.52360843 C101.179381,4.24101831 101.662851,4.09972325 102.296101,4.09972325 C103.249769,4.09972325 104.010997,4.48121991 104.580732,5.24421323 L105.249058,4.63381857 C104.89167,4.14211176 104.470767,3.78228035 103.988245,3.55526628 C103.503827,3.32636829 102.93504,3.21239027 102.276194,3.21239027 C101.407845,3.21239027 100.703496,3.42433286 100.156511,3.85010198 C99.6142671,4.27398715 99.338405,4.93713197 99.338405,5.83482658 C99.338405,6.64680218 99.5602323,7.25437094 100.001043,7.65470694 C100.439009,8.05410098 101.093115,8.32727142 101.961465,8.47516025 L102.703733,8.60515171 C103.348359,8.71536185 103.795805,8.91600084 104.040384,9.20518473 C104.288755,9.49342665 104.414836,9.89847249 104.414836,10.4146704 C104.414836,11.0052838 104.22998,11.4536601 103.855528,11.7616833 C103.48392,12.0697066 102.984335,12.2241892 102.352032,12.2241892 C101.792724,12.2241892 101.308307,12.1102111 100.901623,11.8822551 C100.491148,11.6552411 100.113852,11.2812801 99.7687878,10.7650822 L99.0445313,11.3556955 C99.4388909,11.9472508 99.9043489,12.3871495 100.439009,12.6763334 C100.967982,12.9664592 101.60692,13.1105802 102.352032,13.1105802" id="Fill-9" fill="#FFFFFF"></path>
                        <path d="M72.6386539,38.0986114 L72.3571039,38.0986114 C72.07271,38.0986114 71.8262353,38.1824465 71.6252637,38.3604783 C71.421448,38.5469877 71.328546,38.8672565 71.328546,39.3664991 C71.328546,41.7091712 70.6478967,43.3199349 69.2989217,44.1611114 C68.6523996,44.5840547 67.9926058,44.8798323 67.3375518,45.0446765 C66.6862898,45.2095208 65.8691314,45.2942978 64.9040882,45.2942978 C63.9627444,45.2942978 62.9417704,45.0569221 61.8743453,44.5925324 C61.2107596,44.3042904 60.6192203,43.9199679 60.121531,43.4508683 C59.6266856,42.9770588 59.1981988,42.3054363 58.8446024,41.4463624 C58.4881621,40.5844625 58.3042541,39.5661961 58.3042541,38.424532 L58.3042541,31.5754895 C58.3042541,30.4338254 58.4701505,29.4146171 58.7934115,28.5480074 C59.1166726,27.6813977 59.5129281,27.0097752 59.9717502,26.5444434 C60.4315203,26.0753438 60.9756606,25.6900793 61.6013272,25.4112571 C62.2269937,25.1192473 62.7967295,24.9252021 63.2906269,24.840425 C64.2869534,24.6671031 65.9070506,24.5022588 67.7328593,25.2765558 C68.3319825,25.5167574 68.8723308,25.8294904 69.3415808,26.2053353 C69.796611,26.5698765 70.2042422,27.1105656 70.5530987,27.8085632 C70.910487,28.5188064 71.1493779,29.3515053 71.2593435,30.2812268 C71.3238061,30.8690142 71.6982581,31.2024706 72.2897974,31.2024706 L72.6045266,31.2024706 C73.2595805,31.2024706 73.6340325,30.8011926 73.6292926,30.0787039 C73.514587,28.8353073 73.2093376,27.7237862 72.7192321,26.7629798 C72.2300747,25.8078252 71.6593909,25.0476578 71.0261405,24.5022588 C70.3928902,23.9568599 69.6724256,23.5047157 68.8856026,23.1571299 C68.1073113,22.811428 67.3802109,22.5778201 66.7156772,22.4694939 C65.4444365,22.2575513 64.1419125,22.2575513 62.8270648,22.4694939 C62.1549473,22.5778201 61.3851878,22.8359191 60.5339021,23.2296613 C59.6617609,23.6309393 58.9005332,24.1471373 58.261595,24.7603578 C57.610333,25.3773462 57.049129,26.2825766 56.5988387,27.4402541 C56.1551843,28.586628 55.9295651,29.930815 55.9295651,31.4360784 L55.9295651,38.5300323 C55.9295651,39.9881974 56.1646641,41.3078932 56.6234862,42.4363697 C57.0832563,43.5865115 57.657732,44.4907999 58.3336414,45.1247437 C59.006707,45.7549197 59.79353,46.2833632 60.6694632,46.6846412 C61.5416045,47.0868611 62.3502311,47.3524958 63.0735395,47.4796614 C63.7712525,47.5983493 64.5922029,47.6576932 65.5875815,47.6576932 C66.5715843,47.6576932 67.7281194,47.4033621 69.0306434,46.9012936 C69.8819291,46.5668953 70.633677,46.1062734 71.2726152,45.5307316 C71.9191373,44.9523638 72.4850812,44.0979996 72.957175,42.9902464 C73.4292689,41.8824931 73.6719517,40.5797527 73.6719517,39.1215877 C73.6719517,38.482934 73.285176,38.0986114 72.6386539,38.0986114" id="Fill-11" fill="#FFFFFF"></path>
                        <path d="M92.9162223,38.4244378 C92.9162223,39.5576242 92.7503259,40.5758906 92.4270648,41.4556878 C92.1075957,42.3128779 91.7084963,42.9863843 91.2477782,43.4545419 C90.788956,43.9245835 90.2400758,44.3089061 89.6229411,44.5924382 C88.9887427,44.8844479 88.419007,45.0737833 87.9298495,45.1585604 C86.9136154,45.34036 85.9381443,45.34036 84.9133784,45.1585604 C84.4232729,45.0737833 83.8535371,44.8844479 83.2202868,44.5924382 C82.603152,44.3089061 82.0495319,43.9245835 81.5736462,43.4545419 C81.1015523,42.9863843 80.7015049,42.3128779 80.3820358,41.4556878 C80.0587747,40.5881362 79.8928783,39.5689278 79.8928783,38.4244378 L79.8928783,31.5753953 C79.8928783,30.4337312 80.0587747,29.4192327 80.3820358,28.5648686 C80.7052968,27.7199241 81.0968124,27.0643151 81.5480507,26.6197066 C82.0154047,26.1722722 82.5690248,25.807731 83.1946913,25.5345605 C83.8288897,25.2595062 84.4024173,25.0777065 84.8915748,24.9966974 C85.3769404,24.92134 85.8879014,24.8827193 86.4026543,24.8827193 C86.9174073,24.8827193 87.4236284,24.92134 87.8957222,24.9966974 C88.3772959,25.0777065 88.9422917,25.2595062 89.5774381,25.5345605 C90.2012087,25.807731 90.7548288,26.1722722 91.2183908,26.6197066 C91.673421,27.0596052 92.0734684,27.7152143 92.4100012,28.5686365 C92.745586,29.4314783 92.9162223,30.4422089 92.9162223,31.5753953 L92.9162223,38.4244378 Z M93.0138642,24.9335856 C92.3758739,24.3165971 91.6184382,23.805109 90.7548288,23.4207865 C89.9035431,23.0402318 89.1252518,22.7896685 88.4408105,22.6794584 C87.1335466,22.4731676 85.7049413,22.4731676 84.4062093,22.6634449 C83.7340917,22.7604675 82.9605403,22.9978432 82.1092547,23.3652104 C81.2323735,23.7410553 80.466406,24.2402978 79.8331556,24.8450407 C79.1951653,25.4488415 78.6415452,26.3324066 78.1912549,27.4740707 C77.7400166,28.6034892 77.5134495,29.9344887 77.5134495,31.4359842 L77.5134495,38.5299381 C77.5134495,39.9796255 77.7352767,41.2955534 78.1694514,42.4325077 C78.6083659,43.5826495 79.1515582,44.482228 79.7904965,45.1161718 C80.4237469,45.7463478 81.301576,46.3303674 82.3908046,46.8541011 C83.4923569,47.3872544 84.8498637,47.657599 86.41877,47.657599 C87.908994,47.657599 89.350871,47.3533436 90.7083778,46.7570785 C91.5587155,46.3680461 92.3161512,45.8518481 92.9626733,45.226382 C93.6186752,44.5839605 94.1760872,43.6749622 94.6225856,42.5210526 C95.0652921,41.3709108 95.2909112,40.0267238 95.2909112,38.5299381 L95.2909112,31.4359842 C95.2909112,29.9768772 95.069084,28.6750787 94.6387013,27.5635576 C94.2045266,26.4520365 93.6565944,25.5675294 93.0138642,24.9335856 L93.0138642,24.9335856 Z" id="Fill-13" fill="#FFFFFF"></path>
                        <path d="M116.938595,22.5195124 L116.584998,22.5195124 C116.287333,22.5195124 116.027586,22.6297225 115.831354,22.8322454 C115.653134,23.0310005 115.55644,23.2759119 115.55644,23.5424886 L115.55644,43.6450077 C111.926626,37.2405736 107.935632,30.4499331 103.67636,23.4369883 C103.267781,22.7813792 102.677189,22.4479229 101.924493,22.4479229 C100.876028,22.4479229 100.298708,23.073389 100.298708,24.2065754 L100.298708,46.5999584 C100.298708,46.866535 100.39161,47.1039107 100.57457,47.3064337 C100.766062,47.5136664 101.013485,47.6238766 101.294087,47.6238766 L101.680863,47.6238766 C101.953881,47.6238766 102.195616,47.5183762 102.400379,47.3149114 C102.604195,47.1114465 102.710369,46.8712449 102.710369,46.5999584 L102.710369,26.5228724 L114.584761,46.7742223 C114.977225,47.3874428 115.483446,47.6954661 116.095841,47.6954661 C116.662733,47.6954661 117.113023,47.5569969 117.444816,47.2857104 C117.78988,47.0021783 117.967153,46.5707574 117.967153,46.0036932 L117.967153,23.5424886 C117.967153,23.2759119 117.870459,23.0310005 117.687499,22.8284776 C117.495059,22.6297225 117.23626,22.5195124 116.938595,22.5195124" id="Fill-15" fill="#FFFFFF"></path>
                        <path d="M139.436616,22.5195124 L139.083967,22.5195124 C138.786302,22.5195124 138.526555,22.6297225 138.331271,22.8322454 C138.153051,23.0310005 138.054461,23.2759119 138.054461,23.5424886 L138.054461,43.6450077 C134.424647,37.2405736 130.434601,30.4499331 126.175329,23.4369883 C125.76675,22.7813792 125.17521,22.4479229 124.422515,22.4479229 C123.375945,22.4479229 122.796729,23.073389 122.796729,24.2065754 L122.796729,46.5999584 C122.796729,46.866535 122.889631,47.1039107 123.07354,47.3064337 C123.265031,47.5136664 123.511506,47.6238766 123.792108,47.6238766 L124.179832,47.6238766 C124.45285,47.6238766 124.693637,47.5183762 124.899348,47.3149114 C125.103164,47.1114465 125.209338,46.8712449 125.209338,46.5999584 L125.209338,26.5228724 L137.08373,46.7742223 C137.476194,47.3874428 137.981467,47.6954661 138.59481,47.6954661 C139.160754,47.6954661 139.611044,47.5569969 139.942837,47.2857104 C140.287901,47.0021783 140.46707,46.5707574 140.46707,46.0036932 L140.46707,23.5424886 C140.46707,23.2759119 140.369428,23.0310005 140.18552,22.8284776 C139.994028,22.6297225 139.735229,22.5195124 139.436616,22.5195124" id="Fill-17" fill="#FFFFFF"></path>
                        <path d="M151.1508,33.4181655 C150.853134,33.4181655 150.593388,33.5283756 150.398104,33.7318405 C150.218936,33.9305956 150.122242,34.174565 150.122242,34.4420837 L150.122242,34.7538748 C150.122242,35.405716 150.495746,35.7815608 151.1508,35.7815608 L157.369546,35.7815608 C158.026496,35.7815608 158.4,35.405716 158.4,34.7538748 L158.4,34.4420837 C158.4,34.1717391 158.303306,33.9258857 158.119398,33.7318405 C157.931698,33.5283756 157.6729,33.4181655 157.369546,33.4181655 L151.1508,33.4181655 Z" id="Fill-19" fill="#FFFFFF"></path>
                        <path d="M159.655599,22.5195124 L147.384951,22.5195124 C146.776348,22.5195124 146.32985,22.6674012 146.057779,22.9499913 C145.785709,23.2382332 145.648252,23.6602345 145.648252,24.2065754 L145.648252,45.8991349 C145.648252,46.4059131 145.759166,46.8156688 145.977201,47.1208661 C146.223676,47.4590323 146.670174,47.6238766 147.350824,47.6238766 L159.655599,47.6238766 C159.928617,47.6238766 160.170352,47.5183762 160.370376,47.3196212 C160.579879,47.1208661 160.684157,46.8797226 160.684157,46.5999584 L160.684157,46.2834574 C160.684157,45.9792021 160.575139,45.7211031 160.370376,45.5430713 C160.165612,45.3575038 159.928617,45.2595392 159.655599,45.2595392 L148.061808,45.2595392 L148.061808,24.8829077 L159.655599,24.8829077 C159.920085,24.8829077 160.16182,24.790595 160.361844,24.6078533 C160.575139,24.417576 160.684157,24.1641869 160.684157,23.8561636 L160.684157,23.5424886 C160.684157,23.2674342 160.575139,23.0140451 160.374168,22.8237677 C160.174144,22.6203028 159.931461,22.5195124 159.655599,22.5195124" id="Fill-21" fill="#FFFFFF"></path>
                        <path d="M180.571537,38.0986114 L180.290935,38.0986114 C180.005593,38.0986114 179.759118,38.1824465 179.559095,38.3604783 C179.354331,38.5469877 179.261429,38.8672565 179.261429,39.3664991 C179.261429,41.7091712 178.58078,43.3199349 177.230857,44.1611114 C176.584335,44.5840547 175.925489,44.8798323 175.269487,45.0446765 C174.619173,45.2095208 173.802014,45.2942978 172.836971,45.2942978 C171.895627,45.2942978 170.874653,45.0569221 169.807228,44.5925324 C169.143643,44.3042904 168.552103,43.9199679 168.054414,43.4508683 C167.560517,42.9770588 167.131082,42.3054363 166.777485,41.4463624 C166.421045,40.5844625 166.237137,39.5661961 166.237137,38.424532 L166.237137,31.5754895 C166.237137,30.4338254 166.403982,29.4146171 166.727243,28.5480074 C167.049556,27.6813977 167.445811,27.0097752 167.905581,26.5444434 C168.364403,26.0753438 168.909492,25.6900793 169.535158,25.4112571 C170.160825,25.1192473 170.729613,24.9252021 171.224458,24.840425 C172.218888,24.6671031 173.840882,24.5022588 175.665742,25.2765558 C176.265813,25.5167574 176.806162,25.8294904 177.274464,26.2053353 C177.729494,26.5698765 178.138073,27.1105656 178.485982,27.8085632 C178.844318,28.5188064 179.081313,29.3515053 179.192227,30.2812268 C179.256689,30.8690142 179.631141,31.2024706 180.22268,31.2024706 L180.538358,31.2024706 C181.192464,31.2024706 181.566916,30.8011926 181.563124,30.0787039 C181.448418,28.8353073 181.142221,27.7237862 180.652115,26.7629798 C180.162958,25.8078252 179.592274,25.0476578 178.959024,24.5022588 C178.324825,23.9568599 177.607205,23.5047157 176.819434,23.1571299 C176.040194,22.811428 175.313094,22.5778201 174.64856,22.4694939 C173.376372,22.2575513 172.074796,22.2575513 170.760896,22.4694939 C170.08783,22.5778201 169.318071,22.8359191 168.467733,23.2296613 C167.594644,23.6309393 166.833416,24.1471373 166.195426,24.7603578 C165.543216,25.3773462 164.982012,26.2825766 164.530774,27.4402541 C164.089015,28.586628 163.863396,29.930815 163.863396,31.4360784 L163.863396,38.5300323 C163.863396,39.9881974 164.097547,41.3078932 164.557317,42.4363697 C165.016139,43.5865115 165.591563,44.4907999 166.266524,45.1247437 C166.93959,45.7549197 167.726413,46.2833632 168.603294,46.6846412 C169.474487,47.0868611 170.283114,47.3524958 171.007371,47.4796614 C171.705084,47.5983493 172.525086,47.6576932 173.521412,47.6576932 C174.504467,47.6576932 175.66195,47.4033621 176.963526,46.9012936 C177.814812,46.5668953 178.567508,46.1062734 179.205498,45.5307316 C179.85202,44.9523638 180.418912,44.0979996 180.891006,42.9902464 C181.3631,41.8824931 181.604835,40.5797527 181.604835,39.1215877 C181.604835,38.482934 181.218059,38.0986114 180.571537,38.0986114" id="Fill-23" fill="#FFFFFF"></path>
                        <path d="M192.841711,26.9298022 L192.490011,26.9298022 C191.846333,26.9298022 191.459557,27.3018791 191.459557,27.9188676 L191.459557,46.5999584 C191.459557,46.8712449 191.556251,47.1076786 191.740159,47.3064337 C191.932599,47.5136664 192.191397,47.6238766 192.490011,47.6238766 L192.841711,47.6238766 C193.144117,47.6238766 193.403863,47.5136664 193.595355,47.3064337 C193.777367,47.1039107 193.872165,46.866535 193.872165,46.5999584 L193.872165,27.9188676 C193.872165,27.3018791 193.484441,26.9298022 192.841711,26.9298022" id="Fill-25" fill="#FFFFFF"></path>
                        <g id="Group-29" transform="translate(183.864629, 22.519701)">
                            <mask id="mask-2" fill="white">
                                <use xlink:href="#path-1"></use>
                            </mask>
                            <g id="Clip-28"></g>
                            <path d="M17.3887901,0.312733065 C17.2010902,0.110210146 16.9470316,0 16.6446261,0 L1.03424576,0 C0.752695817,0 0.510013035,0.100790476 0.310937315,0.304255361 C0.106173717,0.503010411 0,0.752631683 0,1.02297623 L0,1.40824076 C0,2.00450591 0.387723664,2.36339536 1.03424576,2.36339536 L16.6446261,2.36339536 C17.2873563,2.36339536 17.674132,2.00450591 17.674132,1.40824076 L17.674132,1.02297623 C17.674132,0.752631683 17.5755421,0.50677828 17.3887901,0.312733065" id="Fill-27" fill="#FFFFFF" mask="url(#mask-2)"></path>
                        </g>
                        <g id="Group-32" transform="translate(6.262543, 0.000000)">
                            <mask id="mask-4" fill="white">
                                <use xlink:href="#path-3"></use>
                            </mask>
                            <g id="Clip-31"></g>
                            <path d="M15.3582178,21.9079874 L15.3572698,21.9079874 C11.6667852,21.9079874 8.66548169,18.9247777 8.66548169,15.2595838 C8.66548169,11.5925061 11.6667852,8.60929636 15.3572698,8.60929636 C17.8296007,8.60929636 19.9682427,9.963845 21.1266738,11.9504535 C21.2954141,11.6867028 21.4669985,11.422952 21.6783979,11.1827504 C22.7733144,9.93464402 24.2919777,9.18483824 25.954734,9.07274416 C27.3340443,8.97760548 28.6555279,9.35156641 29.7874156,10.0919525 C27.6497215,4.21690395 21.997867,-0.000282590119 15.3572698,-0.000282590119 C6.88896789,-0.000282590119 0,6.84499205 0,15.2595838 C0,23.6722917 6.88896789,30.5175663 15.3572698,30.5175663 L15.3582178,30.5175663 C22.5012442,30.5185083 28.3133073,36.2927664 28.3133073,43.3904882 C28.3133073,45.768955 30.2528736,47.6952777 32.6455741,47.6952777 C35.0382747,47.6952777 36.977841,45.768955 36.977841,43.3904882 C36.977841,31.5452524 27.2790615,21.9079874 15.3582178,21.9079874" id="Fill-30" fill="#FFFFFF" mask="url(#mask-4)"></path>
                        </g>
                        <path d="M29.3762768,12.427654 C27.8026306,14.2211593 27.9893826,16.9425022 29.7943358,18.5061675 C31.599289,20.0688909 34.3370542,19.8833233 35.9107003,18.0898181 C37.4852945,16.2972547 37.2975945,13.5759119 35.4935893,12.0122466 C33.6886361,10.4485812 30.949923,10.6341488 29.3762768,12.427654" id="Fill-33" fill="#FFFFFF"></path>
                        <path d="M8.54698424,26.3204437 C3.36437967,30.2484463 0,36.4286922 0,43.3907708 C0,45.7682956 1.9395663,47.6955603 4.33226686,47.6955603 C6.72496741,47.6955603 8.66453371,45.7682956 8.66453371,43.3907708 C8.66453371,38.0969159 11.8999882,33.5415632 16.5081171,31.5662582 C13.3731485,30.5941482 10.6296955,28.7460089 8.54698424,26.3204437" id="Fill-35" fill="#FFFFFF"></path>
                    </g>
                </g>
            </g>
        </g>
    </g>
</svg>
